<?xml version="1.0" encoding="utf-8"?>
<!-- Generator: Adobe Illustrator 21.1.0, SVG Export Plug-In . SVG Version: 6.00 Build 0)  -->
<svg version="1.1" id="Layer_1" xmlns="http://www.w3.org/2000/svg" xmlns:xlink="http://www.w3.org/1999/xlink" x="0px" y="0px"
	 viewBox="0 0 500 200" style="enable-background:new 0 0 500 200;" xml:space="preserve">
<style type="text/css">
	.st0{fill:#444C59;}
	.st1{fill:#8965AB;}
	.st2{fill:#565555;}
</style>
<g>
	<path class="st0" d="M32.1,99.3c1.5,1.5,2.9,2.9,4.4,4.4c-0.3,0.3-0.5,0.6-0.8,0.9c-3.5,3.5-7,7-10.4,10.5c-0.9,0.9-1.8,1.5-3,1.7
		c-1.4,0.3-2.8,0.7-4.4,1.2c0.6-2.1,1.1-4,1.6-5.9c0.1-0.3,0.4-0.6,0.6-0.9c3.9-3.9,7.8-7.9,11.8-11.8C31.9,99.4,32,99.3,32.1,99.3"
		/>
	<path class="st1" d="M38.9,101.5c-1.6-1.6-3-3-4.5-4.5c0.8-1.2,1.8-3,4-2.5c1.7,0.4,2.9,1.7,3.1,3.3C41.8,99.7,40,100.7,38.9,101.5
		"/>
	<path class="st0" d="M16.8,108.7c-1.7-3.3-2.7-7.1-2.7-11.1c0-13.3,10.8-24.1,24.1-24.1c13.3,0,24.1,10.8,24.1,24.1
		s-10.8,24.1-24.1,24.1c-4,0-7.8-1-11.1-2.7l1.6-3.3c2.8,1.5,6.1,2.3,9.5,2.3c11.3,0,20.5-9.2,20.5-20.5s-9.2-20.5-20.5-20.5
		c-11.3,0-20.5,9.2-20.5,20.5c0,3.5,0.9,6.7,2.4,9.6"/>
</g>
<g>
	<g>
		<path class="st2" d="M99.7,73.6c12.5,0,19.6,6.2,19.6,17.1c0,11.5-7.2,18.1-19.6,18.1h-7.6v13H77.8V73.6H99.7z M92.1,97.8H99
			c4.3,0,6.7-2.3,6.7-6.7c0-4.2-2.5-6.5-6.7-6.5h-6.9V97.8z"/>
		<path class="st2" d="M144.2,73.7c0,4.2-3,7.2-7.2,7.2c-4.2,0-7.2-3-7.2-7.2s3-7.2,7.2-7.2C141.2,66.5,144.2,69.5,144.2,73.7z
			 M130,121.8V84.4h13.9v37.4H130z"/>
		<path class="st2" d="M191.4,93.7l-10.7,5.2c-1.3-2.3-3.4-3.7-6-3.7c-3.7,0-6.2,3.2-6.2,8c0,4.9,2.5,8.1,6.2,8.1
			c2.7,0,4.7-1.3,5.9-4.1l10.8,5.4c-2.9,6.2-9.2,9.7-17.5,9.7c-11.8,0-19.5-7.6-19.5-19.1c0-11.6,7.8-19.3,19.6-19.3
			C182,83.9,188.2,87.5,191.4,93.7z"/>
		<path class="st2" d="M226.8,120c-2.6,1.5-6.6,2.4-10.4,2.4c-8,0.1-13.4-4.5-13.4-12.3V95.2h-5.2v-8.9h5.2V75.9h13.8v10.4h9.2v8.9
			h-9.2V108c0,2.4,1.2,3.6,3.2,3.6c1.1,0,2.6-0.5,4.3-1.1L226.8,120z"/>
		<path class="st2" d="M251.3,73.7c0,4.2-3,7.2-7.2,7.2c-4.2,0-7.2-3-7.2-7.2s3-7.2,7.2-7.2C248.4,66.5,251.3,69.5,251.3,73.7z
			 M237.2,121.8V84.4h13.9v37.4H237.2z"/>
		<path class="st2" d="M303.3,103.1c0,11.6-8.2,19.2-20.8,19.2c-12.6,0-20.9-7.6-20.9-19.2c0-11.6,8.3-19.2,20.9-19.2
			C295.1,83.9,303.3,91.5,303.3,103.1z M275.7,103.2c0,5,2.7,8.3,6.8,8.3c4.1,0,6.7-3.3,6.7-8.3c0-5-2.7-8.3-6.7-8.3
			C278.4,94.9,275.7,98.3,275.7,103.2z"/>
		<path class="st2" d="M353.2,98.1v23.7h-13.9v-19.8c0-3.7-2.1-6.1-5.4-6.1c-3.8,0.1-6.1,3-6.1,7.3v18.5h-13.9V84.4h13.9v5.8
			c2.6-4.1,6.7-6.3,11.9-6.3C347.7,83.8,353.2,89.4,353.2,98.1z"/>
		<path class="st2" d="M400.1,97.5v24.3h-13.6v-4.1c-2.3,3-6,4.7-10.9,4.7c-8,0-12.7-4.7-12.7-11.8c0-7.2,5-11.2,14.5-11.4h9.2v-0.1
			c0-3.1-2.2-5-6.5-5c-3,0-7.2,0.9-11.3,2.7l-3.4-9.2c6.1-2.5,12.2-3.9,18-3.9C393.8,83.8,400.1,88.8,400.1,97.5z M386.4,109.5v-3.4
			h-6.3c-2.8,0-4.2,1.2-4.2,3.5c0,2.3,1.5,3.7,4.2,3.7C382.9,113.3,385.4,111.8,386.4,109.5z"/>
		<path class="st2" d="M426.4,90.3c2.6-4.1,6.7-6.5,11.8-6.5v12.5c-7.2-0.9-11.8,2.1-11.8,7.6v17.9h-13.9V84.4h13.9V90.3z"/>
		<path class="st2" d="M471.9,125c-3,7.4-8.1,10.8-15.6,10.8c-4.6,0-8.3-1.3-12-4.1l5.8-9.3c1.7,1.5,3.2,2.1,5,2.1
			c1.9,0,3.2-0.8,4.1-2.4l0.7-1.3l-15.5-36.4h14.2l8.2,22.9l7-22.9h13.8L471.9,125z"/>
	</g>
</g>
</svg>
