<?xml version="1.0" encoding="utf-8"?>
<!-- Generator: Adobe Illustrator 21.1.0, SVG Export Plug-In . SVG Version: 6.00 Build 0)  -->
<svg version="1.1" id="Layer_1" xmlns="http://www.w3.org/2000/svg" xmlns:xlink="http://www.w3.org/1999/xlink" x="0px" y="0px"
	 viewBox="0 0 100 100" style="enable-background:new 0 0 100 100;" xml:space="preserve">
<style type="text/css">
	.st0{fill:#444C59;}
	.st1{fill:#8965AB;}
	.st2{fill:#565555;}
</style>
<g>
	<path class="st0" d="M32.1-115.6c1.5,1.5,2.9,2.9,4.4,4.4c-0.3,0.3-0.5,0.6-0.8,0.9c-3.5,3.5-7,7-10.4,10.5c-0.9,0.9-1.8,1.5-3,1.7
		c-1.4,0.3-2.8,0.7-4.4,1.2c0.6-2.1,1.1-4,1.6-5.9c0.1-0.3,0.4-0.6,0.6-0.9c3.9-3.9,7.8-7.9,11.8-11.8
		C31.9-115.5,32-115.5,32.1-115.6"/>
	<path class="st1" d="M38.9-113.4c-1.6-1.6-3-3-4.5-4.5c0.8-1.2,1.8-3,4-2.5c1.7,0.4,2.9,1.7,3.1,3.3
		C41.8-115.1,40-114.1,38.9-113.4"/>
	<path class="st0" d="M16.8-106.2c-1.7-3.3-2.7-7.1-2.7-11.1c0-13.3,10.8-24.1,24.1-24.1c13.3,0,24.1,10.8,24.1,24.1
		S51.6-93.1,38.3-93.1c-4,0-7.8-1-11.1-2.7l1.6-3.3c2.8,1.5,6.1,2.3,9.5,2.3c11.3,0,20.5-9.2,20.5-20.5c0-11.3-9.2-20.5-20.5-20.5
		c-11.3,0-20.5,9.2-20.5,20.5c0,3.5,0.9,6.7,2.4,9.6"/>
</g>
<g>
	<path class="st0" d="M38.4,53.2c2.8,2.8,5.5,5.5,8.3,8.3c-0.5,0.5-1,1.1-1.6,1.7c-6.5,6.5-13.1,13-19.6,19.6
		c-1.6,1.7-3.4,2.7-5.7,3.3c-2.7,0.6-5.3,1.4-8.3,2.2c1.1-3.9,2-7.5,3-11c0.2-0.6,0.7-1.2,1.2-1.7c7.3-7.4,14.7-14.7,22-22.1
		C38.1,53.4,38.3,53.3,38.4,53.2"/>
	<path class="st1" d="M51.1,57.3c-2.9-2.9-5.6-5.6-8.5-8.5c1.6-2.2,3.4-5.6,7.4-4.7c3.2,0.7,5.3,3.1,5.9,6.2
		C56.6,54,53.2,55.9,51.1,57.3"/>
	<path class="st0" d="M9.8,70.7c-3.2-6.2-5-13.3-5-20.7C4.8,25,25,4.8,50,4.8C75,4.8,95.2,25,95.2,50S75,95.2,50,95.2
		c-7.5,0-14.6-1.8-20.8-5l3-6.1c5.3,2.8,11.4,4.4,17.8,4.4c21.2,0,38.4-17.2,38.4-38.4S71.2,11.6,50,11.6
		c-21.2,0-38.4,17.2-38.4,38.4c0,6.5,1.6,12.6,4.4,17.9"/>
</g>
<g>
	<g>
		<path class="st2" d="M99.7-141.3c12.5,0,19.6,6.2,19.6,17.1c0,11.5-7.2,18.1-19.6,18.1h-7.6v13H77.8v-48.2H99.7z M92.1-117.1H99
			c4.3,0,6.7-2.3,6.7-6.7c0-4.2-2.5-6.5-6.7-6.5h-6.9V-117.1z"/>
		<path class="st2" d="M144.2-141.1c0,4.2-3,7.2-7.2,7.2c-4.2,0-7.2-3-7.2-7.2c0-4.2,3-7.2,7.2-7.2
			C141.2-148.3,144.2-145.3,144.2-141.1z M130-93v-37.4h13.9V-93H130z"/>
		<path class="st2" d="M191.4-121.2l-10.7,5.2c-1.3-2.3-3.4-3.7-6-3.7c-3.7,0-6.2,3.2-6.2,8c0,4.9,2.5,8.1,6.2,8.1
			c2.7,0,4.7-1.3,5.9-4.1l10.8,5.4c-2.9,6.2-9.2,9.7-17.5,9.7c-11.8,0-19.5-7.6-19.5-19.1c0-11.6,7.8-19.3,19.6-19.3
			C182-131,188.2-127.4,191.4-121.2z"/>
		<path class="st2" d="M226.8-94.8c-2.6,1.5-6.6,2.4-10.4,2.4c-8,0.1-13.4-4.5-13.4-12.3v-14.9h-5.2v-8.9h5.2v-10.4h13.8v10.4h9.2
			v8.9h-9.2v12.8c0,2.4,1.2,3.6,3.2,3.6c1.1,0,2.6-0.5,4.3-1.1L226.8-94.8z"/>
		<path class="st2" d="M251.3-141.1c0,4.2-3,7.2-7.2,7.2c-4.2,0-7.2-3-7.2-7.2c0-4.2,3-7.2,7.2-7.2
			C248.4-148.3,251.3-145.3,251.3-141.1z M237.2-93v-37.4h13.9V-93H237.2z"/>
		<path class="st2" d="M303.3-111.8c0,11.6-8.2,19.2-20.8,19.2c-12.6,0-20.9-7.6-20.9-19.2c0-11.6,8.3-19.2,20.9-19.2
			C295.1-131,303.3-123.4,303.3-111.8z M275.7-111.6c0,5,2.7,8.3,6.8,8.3c4.1,0,6.7-3.3,6.7-8.3c0-5-2.7-8.3-6.7-8.3
			C278.4-120,275.7-116.6,275.7-111.6z"/>
		<path class="st2" d="M353.2-116.8V-93h-13.9v-19.8c0-3.7-2.1-6.1-5.4-6.1c-3.8,0.1-6.1,3-6.1,7.3V-93h-13.9v-37.4h13.9v5.8
			c2.6-4.1,6.7-6.3,11.9-6.3C347.7-131,353.2-125.5,353.2-116.8z"/>
		<path class="st2" d="M400.1-117.3V-93h-13.6v-4.1c-2.3,3-6,4.7-10.9,4.7c-8,0-12.7-4.7-12.7-11.8c0-7.2,5-11.2,14.5-11.4h9.2v-0.1
			c0-3.1-2.2-5-6.5-5c-3,0-7.2,0.9-11.3,2.7l-3.4-9.2c6.1-2.5,12.2-3.9,18-3.9C393.8-131,400.1-126,400.1-117.3z M386.4-105.4v-3.4
			h-6.3c-2.8,0-4.2,1.2-4.2,3.5c0,2.3,1.5,3.7,4.2,3.7C382.9-101.5,385.4-103,386.4-105.4z"/>
		<path class="st2" d="M426.4-124.6c2.6-4.1,6.7-6.5,11.8-6.5v12.5c-7.2-0.9-11.8,2.1-11.8,7.6V-93h-13.9v-37.4h13.9V-124.6z"/>
		<path class="st2" d="M471.9-89.9c-3,7.4-8.1,10.8-15.6,10.8c-4.6,0-8.3-1.3-12-4.1l5.8-9.3c1.7,1.5,3.2,2.1,5,2.1
			c1.9,0,3.2-0.8,4.1-2.4l0.7-1.3l-15.5-36.4h14.2l8.2,22.9l7-22.9h13.8L471.9-89.9z"/>
	</g>
</g>
</svg>
