<?xml version="1.0" standalone="no"?>
<!DOCTYPE svg PUBLIC "-//W3C//DTD SVG 1.1//EN" "http://www.w3.org/Graphics/SVG/1.1/DTD/svg11.dtd">
<svg xmlns="http://www.w3.org/2000/svg">
<metadata>Copyright (C) 2017 by original authors @ fontello.com</metadata>
<defs>
<font id="fontello" horiz-adv-x="1000" >
<font-face font-family="fontello" font-weight="400" font-stretch="normal" units-per-em="1000" ascent="850" descent="-150" />
<missing-glyph horiz-adv-x="1000" />
<glyph glyph-name="draw-mode" unicode="&#xe800;" d="M79-3368h-160c-22 0-40 18-40 41v99c0 23 18 41 40 41h160c22 0 40-18 40-41v-99c-1-23-19-41-40-41z m-160 164c-13 0-25-12-25-25v-100c0-13 12-25 25-25h160c13 0 25 12 25 25v100c0 13-12 25-25 25h-160z m196-35l-93-54c-6-5-14-6-24-6s-16 1-23 6l-93 54 8 13 92-54c9-4 24-4 31 0l93 54 9-13z m475 3877l131-132 51 52c21 21 21 55 0 76l-55 57c-19 20-55 20-75 0l-52-53 0 0z m131-196c-7 0-13 3-18 7l-168 170c-4 5-7 12-7 19 0 8 3 14 7 20l70 71c40 41 109 41 149 0l55-56c42-42 42-111 0-152l-70-72c-4-4-12-7-18-7l0 0z m-611-285l-25-158 158 25 444 445-133 132-444-444 0 0z m-56-216c-8 0-14 3-20 7-6 6-9 15-7 23l33 202c1 6 3 11 7 15l468 468c11 11 27 11 37 0l170-170c5-4 8-12 8-19 0-7-3-13-8-19l-468-467c-4-4-9-6-15-7l-201-33c-1 0-3 0-4 0l0 0z m252 82c-8 0-14 3-20 7l-170 170c-10 11-10 27 0 38s27 10 38 0l169-170c11-11 11-27 0-38-4-6-11-7-17-7l0 0z" horiz-adv-x="882" />

<glyph glyph-name="facebook" unicode="&#xe801;" d="M1000-94c0-30-25-55-55-55h-255v387h130l20 151h-150v95c0 44 13 74 75 74l80 0v135c-14 1-61 6-116 6-115 0-194-70-194-199v-112h-131v-151h130v-387h-479c-30 0-55 25-55 55v890c0 30 25 55 55 55h889c30 0 55-25 55-55v-889z" horiz-adv-x="1000" />

<glyph glyph-name="git" unicode="&#xe802;" d="M500-132c-267 0-482 216-482 482 0 267 216 482 482 482 267 0 482-216 482-482 0-267-216-482-482-482z m403 430c20 124-28 290-177 390-155 106-354 88-489-27-74-63-121-143-138-240-8-41-9-82-3-124 53 15 105 9 156 5-1 19-4 36-4 52 1 41 16 78 41 110 4 6 4 11 3 17-4 23-9 46-10 70-1 14 3 29 7 44 4 13 8 14 22 12 39-4 71-20 98-48 4-4 7-5 13-3 65 21 129 21 194-1 5-1 9 0 13 4 24 24 52 40 84 46 30 6 40-2 44-33 0 0 0-1 0-1 4-31-1-61-10-91-2-8-1-14 4-21 26-35 40-74 38-118-1-13-3-27-4-40 40 6 79 8 118-3z m-516-342c0 33 0 62 0 93-17 0-33 0-49 0-12 1-23 1-35 4-22 5-37 19-48 39-15 30-32 58-60 78-2 2-4 4-7 8 5 0 9 2 12 2 20-1 39-7 52-23 8-9 16-20 25-29 16-19 36-27 61-26 9 1 18 1 26 1 24 2 45 10 59 30 5 8 11 13 17 20 2 1 3 3 4 4-12 3-23 5-34 8-62 15-114 43-144 102-2 3-6 5-8 5-21 2-42 2-63 3-29 1-56-7-83-19-7-3-8-6-6-14 34-117 106-203 215-258 21-11 43-18 66-28z m264 15c66 27 121 67 165 121 42 51 70 110 83 175-1 1-2 2-4 2-38 10-77 10-115 6-3 0-6-3-7-5-8-12-16-26-25-38-31-38-74-56-120-67-11-3-23-5-35-8 5-5 10-9 14-15 27-33 43-69 43-113 1-18 1-37 1-58z m-151-29c14 1 26 2 38 2 0 30 0 58 0 87 0 2-1 2-1 4-2 10-9 15-19 14-9 0-17-7-17-16-1-31-1-60-1-91z m-38 2c0 3 1 5 1 7 0 18 0 37 0 55 0 11-8 19-19 19-10 0-18-7-19-19-1-17-1-34 0-50 0-3 3-7 6-8 9-2 20-3 31-4z m-359 316c50 30 103 25 156 22 0 8-4 12-12 12-24 2-49 4-74 5-26 1-50-4-76-9 2-11 3-20 6-30z m473-311c12 3 23 6 34 9 2 1 3 4 3 6 0 14 0 28 0 43 0 11-8 18-17 18-11 1-19-5-19-16-2-20-1-39-1-60z m327 340c-31 9-90 10-118 2-2-1-4-3-6-5 0 0 1-1 1-2 41 4 81 4 121-8 1 6 1 9 2 13z" horiz-adv-x="1000" />

<glyph glyph-name="lobby" unicode="&#xe805;" d="M900 227c-147 0-267 120-267 267s120 268 267 268 267-120 267-268-119-267-267-267z m0 444c-92 0-167-79-167-177s74-177 167-177 167 80 167 177-75 177-167 177z m109-328h24c160 0 290-117 290-260v-189c0-24-22-45-50-45s-50 20-50 45v189c0 93-85 170-190 170h-24v90z m-217-90h-24c-105 0-190-77-190-170v-189c0-24-22-45-50-45-28 0-50 20-50 45v189c0 143 130 260 290 260h24v-90z m658 149c-124 0-225 101-225 223s101 225 225 225 225-101 225-224-100-224-225-224z m0 359c-69 0-125-61-125-135s55-134 125-134c69 0 125 61 125 134s-56 135-125 135z m88-249h19c134 0 243-97 243-218v-151c0-25-22-45-50-45s-50 19-50 45v151c0 71-65 129-143 129h-19v89z m-175-89h-19c-79 0-143-57-143-129 0-24-22-45-50-45s-50 20-50 45c0 121 109 218 243 218h19v-89z m-1013-21c-124 0-225 101-225 223s101 225 225 225 225-101 225-224-101-224-225-224z m0 359c-69 0-125-61-125-135s55-134 125-134 125 60 125 134-56 135-125 135z m88-249h19c134 0 243-97 243-218 0-24-22-45-50-45s-50 20-50 45c0 71-65 129-143 129h-19v89z m-176-89h-19c-79 0-143-57-143-129v-151c0-25-22-45-50-45s-50 20-50 45v151c0 121 109 218 243 218h19v-89z" horiz-adv-x="1800" />

<glyph glyph-name="logout" unicode="&#xe806;" d="M165-3015h-145c-20 0-36 16-36 37v90c0 20 16 37 36 37h145c20 0 36-17 36-37v-90c0-21-16-37-36-37z m-145 149c-12 0-23-11-23-23v-91c0-12 11-23 23-23h145c12 0 23 11 23 23v91c0 12-11 23-23 23h-145z m177-33l-83-48c-6-4-14-6-22-6s-15 2-22 6l-84 48 7 12 84-48c8-4 22-4 28 0l84 48 8-12z m58 3464c9 0 17-3 22-10 12-12 12-31 0-43l-162-162 162-162c12-12 12-31 0-43-12-13-31-13-43 0l-184 183c-12 13-12 32 0 44l184 183c5 6 13 10 21 10z m-154-184h491c18 0 31-13 31-31s-13-31-31-31h-491c-17 0-31 13-31 31s15 31 31 31z m338 429h368c84 0 153-69 153-153v-612c0-86-69-155-153-155h-368c-17 0-31 14-31 32 0 17 14 31 31 31h368c50 0 92 42 92 92v612c0 50-42 92-92 92h-368c-17 0-31 13-31 31s14 30 31 30z" horiz-adv-x="1000" />

<glyph glyph-name="messages" unicode="&#xe808;" d="M459-2744h-133c-19 0-34 15-34 34v83c0 18 15 33 34 33h133c18 0 33-15 33-33v-83c0-19-15-34-33-34z m-133 137c-11 0-21-10-21-21v-83c0-12 10-21 21-21h133c11 0 21 9 21 21v83c0 11-10 21-21 21h-133z m162-30l-77-45c-5-3-12-5-19-5-8 0-14 2-20 5l-77 45 6 11 77-44c7-4 20-4 26 0l77 44 7-11z m624 2487h-889c-123 0-223 100-223 223v554c0 123 100 223 223 223h889c122 0 223-100 223-223v-555c-2-123-101-222-223-222z m-889 917c-77 0-139-62-139-139v-555c-1-78 62-140 139-140h889c76 0 138 62 138 139v555c0 77-62 139-138 139h-889z m1091-197l-516-302c-37-21-84-33-131-33s-94 12-132 33l-514 302 42 72 514-302c48-29 132-29 179 0l514 302 44-72z" horiz-adv-x="1333" />

<glyph glyph-name="notifications" unicode="&#xe809;" d="M455 2c-219 0-455 47-455 151 0 17 13 31 31 31 50 0 91 40 91 91v121c0 183 149 333 333 333s333-150 333-333v-122c0-50 40-91 91-91 16 0 30-13 30-30 0-104-235-151-454-151z m-376 129c46-30 172-69 375-69s329 39 374 69c-59 21-101 77-101 143v122c0 150-122 272-272 272s-273-122-273-272v-122c0-66-43-122-103-143z m376-281c-100 0-182 82-182 182 0 16 13 30 30 30 17 0 31-13 31-30 0-67 54-122 121-122s122 55 122 122c0 16 13 30 30 30 17 0 31-13 31-30-2-100-83-182-183-182z m-31 849v120c0 18 14 31 31 31 16 0 30-13 30-31v-121h-61z" horiz-adv-x="909" />

<glyph glyph-name="profile" unicode="&#xe80a;" d="M449 280c-153 0-276 127-276 285s124 285 276 285 276-128 276-285-123-285-276-285z m0 507c-114 0-207-100-207-222s93-222 208-222 208 99 208 222-94 222-209 222z m415-937c-19 0-34 14-34 31v215c0 118-105 214-233 214h-27c-19 0-34 14-34 31s15 32 34 32h27c166 0 302-125 302-277v-215c0-17-15-31-35-31z m-829 0c-20 0-35 14-35 31v215c0 153 136 277 302 277h27c19 0 35-14 35-31s-16-32-35-32h-27c-128 0-232-96-232-213v-215c0-18-17-32-35-32z" horiz-adv-x="899" />

<glyph glyph-name="quick-play" unicode="&#xe80b;" d="M165-3015h-145c-20 0-36 16-36 37v90c0 20 16 37 36 37h145c20 0 36-17 36-37v-90c0-21-16-37-36-37z m-145 149c-12 0-23-11-23-23v-91c0-12 11-23 23-23h145c12 0 23 11 23 23v91c0 12-11 23-23 23h-145z m177-33l-83-48c-6-4-14-6-22-6s-15 2-22 6l-84 48 7 12 84-48c8-4 22-4 28 0l84 48 8-12z m319 2933c7-3 22-7 41-7l0 0c38 0 97 16 171 91 71 70 42 116 15 143-17 17-4 35 14 54 4 5 8 9 11 13 1 2 1 3 2 6 173 213 119 361 104 392-13 6-47 20-98 20-64 0-166-22-292-124-2-2-3-3-6-3-2-3-8-7-12-11-20-17-24-21-35-21h0c-7 0-13 2-19 8-44 44-90 39-143-15-112-112-93-191-84-212 11-4 35-11 68-4 8 1 15 0 21-6 6-5 10-12 10-20 1-47 23-93 66-138 43-43 89-66 138-66 8 0 15-4 20-10 6-5 7-13 6-21-9-35-2-58 2-69l0 0z m39-60l0 0c-44 0-70 16-73 18-4 3-6 5-8 8-2 4-19 32-17 81-52 8-100 35-145 80-44 44-71 93-80 144-48-2-78 15-81 18-4 3-6 5-8 8-2 6-73 122 89 283 68 67 140 77 200 29 0 0 0 0 0 0 11 8 17 14 22 18 137 111 251 134 323 134 83 0 130-29 133-30 4-3 6-5 8-8 4-8 112-191-106-458l0 0c-4-7-9-12-15-19 0 0 0 0 0 0 48-61 37-133-29-200-90-87-165-106-213-106l0 0z m-440-36c-7 0-14 2-19 8-11 11-11 27 0 36l132 133c11 11 27 11 37 0 11-11 11-27 0-37l-133-132c-5-6-12-8-17-8l0 0z m-34 166c-7 0-13 3-19 8-11 11-11 27 0 37l66 66c11 11 27 11 37 0 11-11 11-27 0-37l-66-66c-4-5-11-8-18-8l0 0z m199-199c-7 0-14 3-19 8-11 11-11 27 0 37l66 66c11 11 27 11 37 0 10-11 10-27 0-36l-67-67c-4-6-10-8-17-8l0 0z m332 625c-17 0-35-7-47-20-26-26-26-69 0-96 26-26 70-26 96 0 12 12 20 29 20 47 0 17-7 35-20 47-14 15-31 22-49 22l0 0z m0-188c-32 0-62 12-85 35-47 47-47 123 0 170 46 46 124 46 170 0 23-23 35-52 35-85s-12-62-35-85c-23-23-52-35-85-35l0 0z" horiz-adv-x="1000" />

<glyph glyph-name="settings" unicode="&#xe80d;" d="M165-3015h-145c-20 0-36 16-36 37v90c0 20 16 37 36 37h145c20 0 36-17 36-37v-90c0-21-16-37-36-37z m-145 149c-12 0-23-11-23-23v-91c0-12 11-23 23-23h145c12 0 23 11 23 23v91c0 12-11 23-23 23h-145z m177-33l-83-48c-6-4-14-6-22-6s-15 2-22 6l-84 48 7 12 84-48c8-4 22-4 28 0l84 48 8-12z m303 3102c-81 0-147 66-147 147s66 147 147 147 147-66 147-147-66-147-147-147z m0 235c-49 0-88-39-88-88s39-88 88-88 88 39 88 88-39 88-88 88z m39-588h-79c-38 0-69 31-69 69v62c-25 7-48 16-69 27-4 3-10 2-12-1l-40-39c-25-26-71-26-97 0l-55 55c-27 27-27 70 0 97l39 40c4 4 3 9 1 12-9 19-19 39-26 60-1 6-4 10-9 10h-54c-38 0-69 31-69 69v80c0 36 31 67 69 67h54c5 0 8 4 9 8 7 21 15 41 26 61 2 4 3 8-1 12l-39 39c-27 27-27 71 0 98l55 55c26 26 72 26 97 0l40-39c2-3 8-3 12-1 19 9 40 19 60 25 5 2 10 6 10 11v54c0 38 31 69 69 69h80c36 0 67-31 67-69v-54c0-5 4-8 8-9 21-7 41-15 61-26 4-3 10-3 12 1l39 39c26 26 72 26 98 0l55-55c27-27 27-70 0-97l-38-41c-4-4-2-9-1-12 9-19 19-39 26-61 1-4 4-8 9-8h54c38 0 69-31 69-69v-79c0-38-31-69-69-69h-54c-5 0-8-4-9-9-7-20-15-40-26-60-1-4-3-8 1-12l39-40c28-27 28-70 0-97l-55-55c-26-26-72-26-97 0l-41 39c-2 3-8 3-12 1-19-9-40-19-61-26-4-1-8-4-8-9v-54c0-38-31-69-69-69z m-221 219c10 0 23-3 33-8 25-12 50-23 77-29 14-2 23-14 23-28v-84c0-5 4-9 11-9h80c5 0 11 4 11 9v54c0 30 20 56 48 65 18 6 36 12 52 22 27 13 61 9 81-12l39-39c5-6 9-6 15 0l55 55c4 4 4 11 0 15l-39 39c-22 22-26 54-12 81 8 16 16 34 22 51 9 30 35 49 64 49h54c6 0 11 4 11 10v79c0 6-4 11-11 11h-54c-29 0-56 20-64 49-6 17-13 35-22 51-15 27-10 60 12 81l39 39c4 4 4 11 0 15l-59 56c-6 5-10 5-15 0l-39-40c-20-20-54-25-81-12-17 8-34 16-52 22-29 9-48 35-48 65v54c0 5-4 9-11 9h-80c-5 0-11-4-11-9v-54c0-30-20-57-48-65-18-6-35-12-52-22-27-13-60-9-81 12l-36 40c-6 5-10 5-15 0l-55-57c-5-4-5-11 0-15l39-39c21-22 25-54 12-81-8-17-16-34-22-52-9-29-35-48-65-48h-54c-5 0-10-4-10-11v-80c0-5 4-9 10-9h54c30 0 56-21 65-49 6-18 12-35 22-51 15-27 9-60-12-81l-39-38c-5-4-5-11 0-15l55-55c5-6 9-6 15 0l39 39c12 12 30 20 49 20z" horiz-adv-x="1000" />

<glyph glyph-name="stats" unicode="&#xe80e;" d="M164-2982h-141c-20 0-36 16-36 36v90c0 20 16 36 36 36h143c20 0 36-16 36-36v-90c-2-20-18-36-38-36z m-141 147c-12 0-23-11-23-23v-89c0-12 11-23 23-23h143c12 0 22 11 22 23v89c0 12-10 23-22 23h-143z m173-32l-81-48c-5-4-13-5-21-5s-15 1-22 5l-83 48 7 12 83-48c8-4 21-4 28 0l83 48 6-12z m775 2717h-942c-16 0-29 13-29 29v942c0 16 13 29 29 29s30-13 30-29v-912h912c16 0 29-14 29-30 0-16-13-29-29-29z m-959 405l231 172c9 6 23 8 33 1l222-133 391 364c12 11 31 11 42-1 10-12 10-31-2-42l-410-379c-9-9-24-10-34-4l-223 134-215-160-35 48z m159-376v289c0 16 13 29 29 29h118c16 0 29-13 29-29v-289h-59v259h-58v-259h-59z m383 0v161h-59v-161h-58v191c0 16 13 30 29 30h117c17 0 30-14 30-30v-191h-59z m264 0v349h-58v-349h-59v378c0 16 13 30 29 30h118c16 0 29-14 29-30v-378h-59z" horiz-adv-x="1000" />

<glyph glyph-name="trash" unicode="&#xe80f;" d="M79-3368h-160c-22 0-40 18-40 41v99c0 23 18 41 40 41h160c22 0 40-18 40-41v-99c-1-23-19-41-40-41z m-160 164c-13 0-25-12-25-25v-100c0-13 12-25 25-25h160c13 0 25 12 25 25v100c0 13-12 25-25 25h-160z m196-35l-93-54c-6-5-14-6-24-6s-16 1-23 6l-93 54 8 13 92-54c9-4 24-4 31 0l93 54 9-13z m-57 3736h735c16 0 30 13 30 30v29c0 33-27 59-58 59h-647c-33 0-58-27-58-59v-59l-2 0z m795-58h-795c-33 0-58 27-58 58v58c0 66 52 118 118 118h647c65 0 117-52 117-118v-88c0-15-13-28-29-28l0 0z m-176-589h-441c-97 0-176 79-176 176v441c0 16 13 30 29 30 17 0 30-14 30-30v-441c0-66 52-118 118-118h411c66 0 118 52 118 118v441c0 16 13 30 30 30 16 0 30-14 30-30v-471c-2-80-69-146-149-146l0 0z m-88 765h-30c-16 0-30 13-30 29v88c3 3-3 21-13 42-5 10-15 16-27 16h-84c-10 0-19-4-25-13-15-24-31-42-28-45v-88c0-16-14-29-30-29h0c-16 0-30 13-30 29v84c0 3 0 6 2 7 19 72 44 85 89 111 5 3 9 4 15 4h100c6 0 12-1 16-4 40-29 54-70 70-108 2-3 3-7 3-12v-111l2 0z m-324-616c-16 0-29 13-29 30v234c0 16 13 30 29 30 17 0 30-14 30-30v-236c-1-16-13-28-30-28l0 0z m176 0c-16 0-30 13-30 30v234c0 16 14 30 30 30 17 0 30-14 30-30v-236c0-16-13-28-30-28l0 0z m176 0c-16 0-30 13-30 30v234c0 16 14 30 30 30 16 0 30-14 30-30v-236c0-16-14-28-30-28l0 0z" horiz-adv-x="882" />

<glyph glyph-name="twitter" unicode="&#xe810;" d="M1167 831c-47-28-100-50-156-61-45 49-109 80-180 80-136 0-246-113-246-253 0-20 2-38 7-57-206 11-387 111-509 264-20-37-33-81-33-127 0-88 44-165 110-210-40 1-78 13-111 31v-3c0-122 85-224 197-247-21-6-42-9-64-9-16 0-32 2-47 4 32-100 122-173 230-175-85-68-191-108-306-108-20 0-40 1-59 3 109-71 238-113 378-113 453 0 700 385 700 719 0 10 0 22 0 33 48 36 89 80 122 130-43-20-92-33-141-39 51 30 90 80 108 138z" horiz-adv-x="1200" />

<glyph glyph-name="guess-mode" unicode="&#xe811;" d="M-33-3548h-167c-24 0-43 19-43 43v105c0 23 19 42 43 42h167c24 0 42-19 42-42v-105c0-24-18-43-42-43z m-167 173c-14 0-27-13-27-27v-105c0-14 13-26 27-26h167c14 0 27 12 27 26v105c0 14-13 27-27 27h-167z m205-38l-97-56c-7-5-16-7-25-7s-18 2-25 7l-97 56 7 14 97-56c10-5 25-5 33 0l97 56 10-14z m300 4252c-144-17-264-133-288-277-14-94 10-186 69-258 50-63 78-149 78-244 0-33 19-61 46-74 0-1 0-1 1-3l55-110c5-7 13-14 22-14h111c10 0 17 5 22 14l55 110c0 0 0 2 0 2 28 12 47 40 47 72v17c0 80 29 164 86 239 42 58 64 125 64 196 2 197-167 352-368 330z m-91-688h260c-4-26-8-52-8-77v-17c0-13-9-22-22-22h-200c-12 0-22 9-22 25 0 31-3 61-8 91z m165-192h-69l-9 19h87l-9-19z m186 389c-33-46-58-93-75-141h-290c-15 48-39 94-68 131-49 63-69 140-57 216 19 119 119 215 238 227 11 2 20 2 31 2 151 0 274-122 274-274 0-58-19-114-53-161z" horiz-adv-x="703" />

<glyph glyph-name="medals" unicode="&#xe813;" d="M-82-4955h-224c-32 0-57 25-57 57v140c0 31 25 57 57 57h224c32 0 57-26 57-57v-140c0-32-25-57-57-57z m-224 231c-19 0-36-17-36-36v-141c0-18 17-35 36-35h224c19 0 36 17 36 35v141c0 19-17 36-36 36h-224z m275-51l-130-75c-9-7-21-9-34-9s-23 2-34 9l-130 75 11 19 130-75c12-7 33-7 44 0l130 75 13-19z m870 5432c-7 34-30 59-63 69l-294 91c-8 2-17 6-25 8-8 2-19 4-27 4-11 0-19-2-30-4-6-2-14-4-25-8l-291-91c-32-10-57-35-63-69-21-121-29-440 390-786 2-4 8-8 13-11 0 0 0 0 0 0 2 0 4 0 6 0 2 0 4 0 4 0 6 3 10 5 13 11 423 346 415 665 392 786z m-409-750c-399 329-390 629-369 744 4 19 17 33 35 40l294 90c8 0 17 4 25 6 4 2 11 2 17 2 0 0 0 0 0 0 6 0 10 0 17-2 6-2 14-4 25-8l293-90c19-7 32-21 36-40 19-113 27-413-373-742z m0 738c-128 0-231-103-231-231 0-128 103-231 231-231 128 0 230 103 230 231 0 126-102 231-230 231z m0-424c-105 0-193 86-193 193 0 107 86 193 193 193 107 0 193-86 193-193 0-107-86-193-193-193z m105 155l-67-10c-3 0-3 0-3-2l-31-61c-2-2-4-2-6 0l-32 61c0 0-2 2-2 2l-67 10c-2 0-4 4-2 7l48 48c0 0 2 2 0 2l-10 67c0 2 2 4 4 4l61-31c0 0 2 0 4 0l61 31c2 2 6 0 4-4l-13-67c0-2 0-2 0-2l49-48c6-3 4-7 2-7z" horiz-adv-x="862" />

<glyph glyph-name="rank" unicode="&#xe815;" d="M-146-7518h-331c-46 0-83 37-83 83v204c0 47 37 84 83 84h331c47 0 84-37 84-84v-207c-3-43-40-80-84-80z m-331 340c-28 0-52-25-52-53v-207c0-28 24-53 52-53h331c28 0 53 25 53 53v207c0 28-25 53-53 53h-331z m406-74l-192-112c-13-9-31-12-50-12s-34 3-49 12l-192 112 15 28 192-112c19-9 50-9 65 0l192 112 19-28z m1229 7777c-43 0-77-34-77-77 0-13 3-22 6-31-25-34-53-65-78-93-40-41-74-68-93-68-46 3-161 207-247 442 21 16 34 37 34 62 0 44-34 78-78 78-43 0-77-34-77-78 0-25 12-49 34-65-87-235-201-436-248-439-31 0-108 77-173 161 3 9 6 18 6 31 0 43-34 77-77 77-44 0-78-34-78-77 0-31 19-59 47-72l46-415c7-55 59-102 118-102h802c59 0 111 47 117 106l47 414c28 13 46 38 46 72 0 40-34 74-77 74z m-90-551c-3-22-22-37-40-37h-805c-22 0-40 15-40 37l-37 344c58-69 133-137 195-137h0c105 10 223 260 284 418 65-158 183-408 291-418 59 0 130 68 189 137l-37-344z m-387 198c-80 62-173-31-111-111 80-62 173 31 111 111z" horiz-adv-x="1248" />

<glyph glyph-name="google" unicode="&#xe816;" d="M-230-10021h-431c-61 0-109 48-109 109v270c0 60 48 109 109 109h431c61 0 109-49 109-109v-270c0-61-48-109-109-109z m-427 444c-37 0-69-33-69-69v-270c0-36 32-69 69-69h431c36 0 69 33 69 69v270c0 36-33 69-69 69h-431z m524-93l-250-145c-16-12-40-17-65-17s-44 5-64 17l-250 145 20 36 250-145c24-12 65-12 85 0l250 145 24-36z m633 10117v-198c0 0 0 0 0 0 8 0 194 0 270 0 0 0 0 0 0 0-32-92-76-157-161-181-194-61-403 80-399 286 0 161 129 294 290 294 85 0 141-32 194-72 0 0 0 0 0 0 40 40 36 48 141 145 0 0 0 0 0 0-89 81-206 129-335 129-278 0-500-222-500-500 0-274 222-500 500-500 411 0 512 359 480 597 0 0 0 0 0 0l-480 0c0 4 0 4 0 0z m899 16v125c0 12-12 24-24 24h-73c-12 0-24-12-24-24v-125c0-12-12-24-24-24h-129c-12 0-24-12-24-24v-77c0-12 12-24 24-24h125c12 0 24-12 24-24v-129c0-13 12-25 24-25h73c12 0 24 12 24 25v129c0 12 12 24 24 24h125c13 0 25 12 25 24v77c0 12-12 24-25 24h-125c-12 0-20 12-20 24z" horiz-adv-x="1573" />

<glyph glyph-name="tour-de-france" unicode="&#xe829;" d="M504 838c-264 0-479-215-479-480s215-479 479-479 479 215 479 479-214 480-479 480z m0-878c-221 0-398 180-398 398s179 400 398 400 400-179 400-400-179-398-400-398z m256 375c0-4 0-6 0-10 0-2 0-2 0-4-4-40-31-71-68-81-4-2-11-2-15-5-6 0-12 0-17 0 0 0-2 0-2 0-37 7-62 28-75 63-2 4-2 8-4 15-8 0-14-3-23-3-2 0-4-2-4-4-6-12-19-18-31-14-13 4-21 16-17 29 0 4 0 6-2 8-29 27-60 54-89 81-3 3-7 7-11 9-2-4-4-9-4-13 2 0 2-2 4-2 31-21 46-52 40-89-4-38-27-63-61-75-6-2-14-5-23-7-6 0-12 0-16 0-2 0-4 0-7 2-45 9-83 48-77 100 5 46 42 82 92 84 10 0 21-2 33-4 0 0 0 2 2 4 11 27 21 54 34 83 2 4 4 6 6 8 15 0 31 0 46 0 0 0 0 0 2-2 4-2 4-6 4-10-2-4-4-6-8-6-11 0-21 0-29 0-2 0-5 0-5-4-2-7-4-13-8-19 0-2-2-4-2-9 2 0 4 0 6 0 54 0 109 0 163 0 8 0 8 0 10 9-6 0-12 0-19 0-4 0-10 0-14 2-4 2-4 6-4 8 0 4 2 4 6 4 4 0 8 2 15 2 10 3 20 3 33 5 6 2 12 4 19 6 4 2 12 0 14-4 2-4 2-9 0-13-4-6-10-12-19-12-8 0-10-4-12-9 0 0-2-2-2-2 0-2 0-4 0-6 4-10 10-19 17-29 2-4 4-8 6-13 2 0 2 0 4 2 50 21 108-8 123-60-13 0-13-8-11-15z m-372 59c-7-15-11-27-17-42-2-6-6-10-8-17-3-2-5-6-5-8-2-6-6-8-12-8-6 0-11 4-11 10 0 6 3 11 9 13 4 0 4 2 6 4 2 4 4 6 6 10 4 9 7 19 11 27 2 7 4 11 6 17-33 13-77 0-94-40-16-37 0-81 38-100 37-16 81 0 100 38 14 40-2 79-29 96z m250 6c0-2 2-2 2-4 8-17 18-33 27-48 2-2 2-4 4-4 6-2 8-11 6-15-2-6-10-10-14-6-5 2-11 2-15 2-6 0-13 0-21-2-10 0-23-2-33-2 2-21 21-50 56-61 31-8 67 7 83 34 17 29 15 64-8 89-23 21-58 30-87 17z m-57 48c-2 0-2 0-4 0-54 0-110 0-164 0-5 0-5-2-7-4-2-2 0-4 2-6 34-32 67-61 100-92 2-2 5-4 9-2 2 0 4 2 6 0 4 0 6 2 6 4 11 21 23 44 34 65 6 12 12 25 18 35z m15-8c0 0-2-2 0 0-19-34-36-67-52-98-2-4 4-11 6-11 6 0 13 2 21 2 2 0 4 2 4 5 2 27 15 50 35 68 0 0 3 2 3 2-5 11-11 21-17 32z m27-48c-17-11-33-42-29-57 19 3 39 3 58 5-10 16-19 33-29 52z" horiz-adv-x="1000" />

<glyph glyph-name="nasa" unicode="&#xe82a;" d="M504 838c-264 0-479-215-479-480s215-479 479-479 479 215 479 479-214 480-479 480z m0-878c-221 0-398 180-398 398s179 400 398 400 400-179 400-400-179-398-400-398z m-2 257c4-2 8-2 17-2l0 0c16 0 41 6 75 39 31 31 19 50 6 63-8 8-2 14 6 23 2 2 4 4 4 6 0 0 0 2 3 2 75 92 52 156 45 169-6 2-20 8-43 8-27 0-73-8-127-54 0 0-3 0-3-2-2 0-4-2-6-4-8-9-10-9-14-9h0c-2 0-7 2-9 4-18 19-39 17-62-6-48-48-40-81-36-91 5-3 15-5 30-3 4 0 6 0 8-2 2-2 4-6 4-8 0-21 10-42 29-60 19-19 40-30 61-30 4 0 6-2 8-4 2-4 2-8 2-10-2-15 0-25 2-29l0 0z m17-25l0 0c-19 0-31 6-31 8-3 0-3 2-5 4 0 2-8 15-8 36-23 4-44 14-62 35-19 19-32 40-36 63-21 0-33 6-35 8-2 0-2 2-4 4-3 2-32 52 37 123 29 29 60 33 88 12 0 0 0 0 0 0 4 5 6 7 8 9 58 48 108 58 139 58 36 0 57-12 57-12 2 0 2-2 4-5 2-4 48-83-46-197l0 0c-2-3-4-7-6-9 0 0 0 0 0 0 21-27 16-58-13-87-35-44-66-50-87-50l0 0z m-192-17c-2 0-6 2-8 4-4 4-4 13 0 17l58 58c4 4 13 4 17 0 4-4 4-12 0-16l-59-59c-2-4-4-4-8-4l0 0z m-14 71c-3 0-7 2-9 4-4 4-4 13 0 17l29 29c5 4 13 4 17 0 4-4 4-13 0-17l-29-29c-2-2-4-4-8-4l0 0z m87-86c-2 0-6 3-8 5-4 4-4 12 0 16l29 29c4 5 12 5 17 0 4-4 4-12 0-16l-30-29c-4-5-6-5-8-5l0 0z m144 271c-9 0-15-2-21-8-10-10-10-29 0-42 10-10 31-10 42 0 6 7 8 13 8 21 0 8-2 15-8 21-7 4-15 8-21 8l0 0z m0-81c-15 0-27 6-38 15-21 20-21 54 0 73 19 18 54 18 73 0 11-11 15-23 15-38 0-15-6-27-15-37-8-9-23-13-35-13l0 0z" horiz-adv-x="1000" />

<glyph glyph-name="banana" unicode="&#xe82b;" d="M504 838c-264 0-479-215-479-480s215-479 479-479 479 215 479 479-214 480-479 480z m0-878c-221 0-398 180-398 398s179 400 398 400 400-179 400-400-179-398-400-398z m-85 167c-4 0-9 0-13 0-2 0-4 2-4 2-6 15 4 21 11 25 16 11 27 25 39 40 2 4 4 6 8 10 19 21 28 48 34 69 0 2 2 6 2 8 0 2 0 2 2 4 10 32 31 48 65 57 56 12 114-19 141-54 9-13 15-25 17-38 2-23-2-40-15-56-2-4-8-11-18-6-3 0-5 2-3 4 0 2 0 2 0 4 0 4 0 6 3 10 2 13 0 25-11 36-10 12-25 23-42 29-27 10-54 2-70-21-5-8-11-15-15-23-4-6-8-14-15-21-16-23-31-41-50-54-20-17-41-25-66-25z m-9 11c25-3 48 4 69 20 17 13 34 32 48 52 4 7 8 15 15 21 4 9 10 17 14 23 19 27 52 38 84 25 16-6 33-16 45-31 11-13 15-27 13-44 0-4 0-6-2-10 0 0 0 0 0 0 2 0 2 2 4 4 10 12 15 29 13 48-3 12-7 23-15 33-25 34-79 63-133 52-30-6-48-21-59-50 0-2 0-2-2-4-2-2-2-6-2-8-6-23-17-50-35-73-2-4-4-6-9-11-12-14-25-31-41-41-4 0-7-2-7-6z m-14 16c-4 0-6 2-11 4-4 5-10 7-16 9-6 2-9 6-6 12 2 15 6 27 14 40 15 25 27 44 38 62 4 9 8 21 10 29 4 13 2 28-4 40-19 35-50 56-90 58-4 0-10 0-16-2-5 0-7-2-11-2-2 0-6 0-8 2 0 0-2 0-2 0-2 4-2 4-2 7 0 2 0 2 0 4 0 0 0 2 0 2 0 2 2 4 4 6 14 15 42 23 71 23 0 0 0 0 0 0 35-2 71-19 98-48 8-10 14-21 20-33 5-9 7-17 9-25l2-4c2-11 2-19 0-32-13-58-42-108-92-146-2-4-4-6-8-6z m-25 23c0 0 2 0 0 0 8-2 14-6 21-10 4-2 4-2 8 0 46 37 75 85 88 141 2 11 2 19 0 27l-3 5c-2 8-4 16-8 23-6 12-12 22-19 31-25 27-58 44-91 44-25 0-52-9-65-21 0 0 0 0 0-2 0 0 2 0 2 0 4 0 6 0 11 2 6 0 12 2 18 2 44-2 77-25 98-65 9-14 11-29 7-46-3-10-7-20-11-31-10-19-23-39-37-62-13-11-15-23-19-38 0 0 0 0 0 0z m135 142c0 0 0 0 0 0-4 2-4 2-4 4 0 21-6 40-17 56l0 0c-2 4-2 9 0 15 3 10 5 21 7 33 4 21 10 44 12 65 2 14 2 29 2 41 0 7 0 15 0 21 0 4 0 9 2 13 5 6 9 10 13 10 4 0 10 0 17-4 20-15 37-35 47-65 13-31 17-66 13-100-2-10-4-20-4-31-2-6-2-10-2-17-2-6-4-10-13-10-4 0-8-2-12-2-4 0-11-2-15-2-14-2-27-8-37-19-2 0-2-2-5-4 0 0-2-2-2-2 0-2 0-2-2-2z m21 252c-2 0-2 0 0 0-2 0-4-2-8-6-2-2-2-7-2-9 0-6 0-14 0-21 0-14 0-29-2-43-5-23-9-44-13-67-2-10-4-21-6-31-2-4 0-9 0-9l0 0c8-16 14-31 17-52 10 11 25 17 41 19 4 0 11 2 15 2 4 0 8 2 12 2 4 0 4 2 4 4 0 7 3 11 3 17 2 11 4 21 4 31 4 34 0 67-13 96-10 27-25 46-44 61-4 4-6 6-8 6z m79-223c-2 0-4 0-4 0-2 0-2 0-4 2-2 2-2 8-2 13 0 4 2 8 2 12 4 15 6 29 6 46 0 4 4 8 6 10 19 13 40 11 55 9 8-2 16-5 25-7 4 0 6-2 8-4 2 0 2-2 4-2 2 0 2-2 2-4 0-2 0-2-2-4l-4-2c-2-2-2-2-4-2-6-5-11-7-17-11-12-8-25-16-37-25-5-4-9-8-13-12-2-2-4-4-6-7 0 0 0-2-2-2-2-2-2-4-6-6 0-2-5-4-7-4z m0 10c2 0 7 0 9 0 0 0 0 2 2 2 0 3 2 3 2 5 2 2 4 4 6 6 4 4 8 10 15 14 12 9 25 19 37 28 6 4 11 6 17 10 0 0 2 0 2 2-2 2-4 2-4 2-7 2-15 4-23 6-21 2-36 0-48-8 0 0-2-2-2-2 0-17-2-31-6-48 0-4-3-8-3-12-6-3-6-5-4-5z m7 0l0 0 0 0z m-140 40c0 0-2 0-2 0-11 6-19 15-23 25-8 25-21 46-33 65 0 0 0 2-2 2 0 0 0 0 0 2 0 2 0 2 0 4 0 2 2 2 2 2 12 2 25 2 37-2 15-4 27-11 38-21 2-2 6-8 4-12-4-17-9-34-13-50l-2-9c0-2 0-2-2-2 0 0 0 0 0-2 0 0-2-2-4-2z m-48 92c13-19 23-40 33-65 2-6 7-12 15-17l2 9c4 16 8 33 13 50 0 0 0 2-3 2-10 8-20 14-33 19-10 2-19 4-27 2z m-40-365c-10 0-22 10-25 21 0 4 0 8 5 10 4 4 8 4 12 4 11-2 21-12 23-22 0-5 0-9-2-9-4-4-8-4-13-4l0 0c0 0 0 0 0 0z m-10 25c-2 0-4 0-4-2 0 0 0-2 0-2 0-6 10-13 14-13 0 0 0 0 0 0 5 0 5 0 7 2 0 0 0 3 0 3-2 4-11 12-17 12 0 0 0 0 0 0z" horiz-adv-x="1000" />

<glyph glyph-name="busted" unicode="&#xe82c;" d="M504 838c-264 0-479-215-479-480s215-479 479-479 479 215 479 479-214 480-479 480z m0-878c-221 0-398 180-398 398s179 400 398 400 400-179 400-400-179-398-400-398z m9 517c-94 0-178-75-209-106-6-6-6-17 0-25 31-31 115-106 209-106 93 0 177 75 208 106 6 6 6 17 0 25-31 33-115 106-208 106l0 0z m0-262c-100 0-186 70-228 114-16 17-16 44 0 61 42 41 128 114 228 114 100 0 185-71 227-114 16-17 16-44 0-61-42-41-127-114-227-114l0 0z m0 185c-21 0-40-17-40-40 0-20 17-39 40-39 20 0 39 17 39 39 0 21-19 40-39 40l0 0z m0-106c-36 0-65 29-65 64s29 65 65 65c35 0 64-29 64-65s-29-64-64-64l0 0z" horiz-adv-x="1000" />
</font>
</defs>
</svg>
