<?xml version="1.0" encoding="utf-8"?>
<!-- Generator: Adobe Illustrator 21.1.0, SVG Export Plug-In . SVG Version: 6.00 Build 0)  -->
<svg version="1.1" id="Layer_1" xmlns="http://www.w3.org/2000/svg" xmlns:xlink="http://www.w3.org/1999/xlink" x="0px" y="0px"
	 viewBox="0 0 340 200" style="enable-background:new 0 0 340 200;" xml:space="preserve">
<style type="text/css">
	.st0{fill:#3B4351;}
	.st1{fill:#8965AB;}
	.st2{clip-path:url(#SVGID_2_);fill:#8965AB;}
	.st3{clip-path:url(#SVGID_4_);fill:#8965AB;}
</style>
<g>
	<path class="st0" d="M36.2,134.2c0,1.2-0.7,1.8-1.9,1.8c-0.8,0-1.4-0.3-1.8-0.9l0.6-0.9c0.4,0.4,0.8,0.6,1.2,0.6
		c0.4,0,0.7-0.3,0.7-0.7v-2.7H33v-1.1h3.2V134.2z"/>
	<path class="st0" d="M43.5,133.2c0,1.6-1.3,2.9-3,2.9s-3-1.2-3-2.9c0-1.6,1.3-2.8,3-2.8S43.5,131.6,43.5,133.2z M38.8,133.2
		c0,1,0.8,1.8,1.7,1.8s1.7-0.8,1.7-1.8s-0.8-1.7-1.7-1.7C39.5,131.4,38.8,132.2,38.8,133.2z"/>
	<path class="st0" d="M44.9,136v-5.6h1.3v5.6H44.9z"/>
	<path class="st0" d="M51.8,136l-2.7-3.6v3.6h-1.2v-5.6h1.2l2.7,3.6v-3.6H53v5.6H51.8z"/>
	<path class="st0" d="M32.5,142.4h-0.1h-1.2v1.6h-1.3v-5.6h2.4c1.5,0,2.3,0.7,2.3,1.9c0,0.9-0.4,1.5-1,1.8l1.2,1.8h-1.4L32.5,142.4z
		 M32.3,141.3c0.7,0,1.1-0.3,1.1-1c0-0.6-0.4-0.9-1.1-0.9h-1.2v1.9H32.3z"/>
	<path class="st0" d="M41.9,141.2c0,1.6-1.3,2.9-3,2.9s-3-1.2-3-2.9c0-1.6,1.3-2.8,3-2.8S41.9,139.6,41.9,141.2z M37.1,141.2
		c0,1,0.8,1.8,1.7,1.8s1.7-0.8,1.7-1.8s-0.8-1.7-1.7-1.7C37.9,139.4,37.1,140.2,37.1,141.2z"/>
	<path class="st0" d="M48.7,141.2c0,1.6-1.3,2.9-3,2.9s-3-1.2-3-2.9c0-1.6,1.3-2.8,3-2.8S48.7,139.6,48.7,141.2z M44,141.2
		c0,1,0.8,1.8,1.7,1.8s1.7-0.8,1.7-1.8s-0.8-1.7-1.7-1.7C44.8,139.4,44,140.2,44,141.2z"/>
	<path class="st0" d="M55,144v-3.8l-1.5,3.2h-0.8l-1.5-3.2v3.8h-1.1v-5.6h1.4l1.6,3.4l1.6-3.4h1.4v5.6H55z"/>
</g>
<g>
	<path class="st0" d="M160.5,133.2v2.2c-0.6,0.4-1.5,0.7-2.3,0.7c-1.7,0-3-1.2-3-2.9c0-1.6,1.3-2.8,3.1-2.8c0.8,0,1.7,0.3,2.2,0.8
		l-0.7,0.9c-0.4-0.4-1-0.6-1.5-0.6c-1,0-1.8,0.8-1.8,1.7c0,1,0.8,1.8,1.8,1.8c0.3,0,0.7-0.1,1.1-0.3v-1.5H160.5z"/>
	<path class="st0" d="M167.1,133.6c0,1.5-1,2.4-2.5,2.4c-1.6,0-2.5-0.9-2.5-2.4v-3.3h1.3v3.3c0,0.8,0.5,1.3,1.3,1.3
		c0.8,0,1.2-0.5,1.2-1.3v-3.3h1.3V133.6z"/>
	<path class="st0" d="M170,131.4v1.2h2.7v1H170v1.2h3.1v1h-4.3v-5.6h4.3v1H170z"/>
	<path class="st0" d="M178.8,130.9l-0.5,1c-0.6-0.4-1.3-0.6-1.7-0.6c-0.4,0-0.7,0.2-0.7,0.5c0,1,3,0.5,3,2.5c0,1.1-1,1.7-2.2,1.7
		c-0.9,0-1.8-0.4-2.5-0.9l0.5-1c0.6,0.5,1.4,0.8,2,0.8c0.5,0,0.8-0.2,0.8-0.5c0-1.1-3-0.4-3-2.4c0-1,0.9-1.7,2.2-1.7
		C177.5,130.3,178.2,130.6,178.8,130.9z"/>
	<path class="st0" d="M184.4,130.9l-0.5,1c-0.6-0.4-1.3-0.6-1.7-0.6c-0.4,0-0.7,0.2-0.7,0.5c0,1,3,0.5,3,2.5c0,1.1-1,1.7-2.2,1.7
		c-0.9,0-1.8-0.4-2.5-0.9l0.5-1c0.6,0.5,1.4,0.8,2,0.8c0.5,0,0.8-0.2,0.8-0.5c0-1.1-3-0.4-3-2.4c0-1,0.9-1.7,2.2-1.7
		C183.1,130.3,183.9,130.6,184.4,130.9z"/>
	<path class="st0" d="M154.3,141.2c0,1.6-1.3,2.9-3,2.9s-3-1.2-3-2.9c0-1.6,1.3-2.8,3-2.8S154.3,139.6,154.3,141.2z M149.6,141.2
		c0,1,0.8,1.8,1.7,1.8s1.7-0.8,1.7-1.8s-0.8-1.7-1.7-1.7C150.4,139.4,149.6,140.2,149.6,141.2z"/>
	<path class="st0" d="M158.3,142.4h-0.1H157v1.6h-1.3v-5.6h2.4c1.5,0,2.3,0.7,2.3,1.9c0,0.9-0.4,1.5-1,1.8l1.2,1.8h-1.4L158.3,142.4
		z M158.1,141.3c0.7,0,1.1-0.3,1.1-1c0-0.6-0.4-0.9-1.1-0.9H157v1.9H158.1z"/>
	<path class="st0" d="M166.9,138.4c1.7,0,2.9,1.1,2.9,2.8c0,1.6-1.2,2.8-3,2.8h-2.3v-5.6H166.9z M165.8,142.9h1.1
		c0.9,0,1.6-0.7,1.6-1.7c0-1-0.7-1.7-1.7-1.7h-1.1V142.9z"/>
	<path class="st0" d="M173.8,142.4h-0.1h-1.2v1.6h-1.3v-5.6h2.4c1.5,0,2.3,0.7,2.3,1.9c0,0.9-0.4,1.5-1,1.8l1.2,1.8h-1.4
		L173.8,142.4z M173.6,141.3c0.7,0,1.1-0.3,1.1-1c0-0.6-0.4-0.9-1.1-0.9h-1.2v1.9H173.6z"/>
	<path class="st0" d="M178.7,142.9l-0.4,1.1h-1.3l2.4-5.6h1.3l2.4,5.6h-1.4l-0.4-1.1H178.7z M180,139.7l-0.9,2.2h1.8L180,139.7z"/>
	<path class="st0" d="M188.6,144l-1.1-4l-1.2,4H185l-1.8-5.6h1.4l1.2,4.2l1.2-4.2h1.2l1.2,4.2l1.2-4.2h1.3l-1.9,5.6H188.6z"/>
</g>
<g>
	<path class="st0" d="M292.9,140l-1.1-4l-1.2,4h-1.3l-1.8-5.6h1.4l1.2,4.2l1.2-4.2h1.2l1.2,4.2l1.2-4.2h1.3l-1.9,5.6H292.9z"/>
	<path class="st0" d="M297.2,140v-5.6h1.3v5.6H297.2z"/>
	<path class="st0" d="M304.2,140l-2.7-3.6v3.6h-1.2v-5.6h1.2l2.7,3.6v-3.6h1.2v5.6H304.2z"/>
</g>
<g>
	<g>
		<g>
			<g>
				<g>
					<path class="st1" d="M42.5,102.4c-3.3,0-5.9-2.5-5.9-5.5c0-3.1,2.7-5.5,5.9-5.5c3.3,0,5.9,2.5,5.9,5.5
						C48.5,100,45.8,102.4,42.5,102.4z M42.5,93.2c-2,0-3.7,1.7-3.7,3.7c0,2,1.7,3.7,3.7,3.7c2,0,3.7-1.7,3.7-3.7
						C46.2,94.9,44.6,93.2,42.5,93.2z"/>
				</g>
				<g>
					<path class="st1" d="M44.9,100h0.5c3.5,0,6.4,2.4,6.4,5.4v3.9c0,0.5-0.5,0.9-1.1,0.9s-1.1-0.4-1.1-0.9v-3.9
						c0-1.9-1.9-3.5-4.2-3.5h-0.5V100z"/>
				</g>
				<g>
					<path class="st1" d="M40.1,101.9h-0.5c-2.3,0-4.2,1.6-4.2,3.5v3.9c0,0.5-0.5,0.9-1.1,0.9s-1.1-0.4-1.1-0.9v-3.9
						c0-3,2.9-5.4,6.4-5.4h0.5V101.9z"/>
				</g>
			</g>
			<g>
				<g>
					<g>
						<path class="st1" d="M54.7,98.8c-2.7,0-5-2.1-5-4.7s2.2-4.7,5-4.7c2.7,0,5,2.1,5,4.7S57.5,98.8,54.7,98.8z M54.7,91.4
							c-1.5,0-2.8,1.3-2.8,2.8c0,1.5,1.2,2.8,2.8,2.8c1.5,0,2.8-1.3,2.8-2.8C57.5,92.6,56.3,91.4,54.7,91.4z"/>
					</g>
					<g>
						<path class="st1" d="M56.7,96.5h0.4c3,0,5.4,2,5.4,4.5v3.2c0,0.5-0.5,0.9-1.1,0.9s-1.1-0.4-1.1-0.9V101c0-1.5-1.4-2.7-3.2-2.7
							h-0.4V96.5z"/>
					</g>
					<g>
						<path class="st1" d="M52.8,98.4h-0.4c-1.8,0-3.2,1.2-3.2,2.7c0,0.5-0.5,0.9-1.1,0.9S47,101.6,47,101c0-2.5,2.4-4.5,5.4-4.5
							h0.4V98.4z"/>
					</g>
				</g>
				<g>
					<g>
						<path class="st1" d="M30.3,98.8c-2.7,0-5-2.1-5-4.7s2.2-4.7,5-4.7s5,2.1,5,4.7S33.1,98.8,30.3,98.8z M30.3,91.4
							c-1.5,0-2.8,1.3-2.8,2.8c0,1.5,1.2,2.8,2.8,2.8s2.8-1.3,2.8-2.8C33.1,92.6,31.9,91.4,30.3,91.4z"/>
					</g>
					<g>
						<path class="st1" d="M32.3,96.5h0.4c3,0,5.4,2,5.4,4.5c0,0.5-0.5,0.9-1.1,0.9s-1.1-0.4-1.1-0.9c0-1.5-1.4-2.7-3.2-2.7h-0.4
							V96.5z"/>
					</g>
					<g>
						<path class="st1" d="M28.4,98.4H28c-1.8,0-3.2,1.2-3.2,2.7v3.2c0,0.5-0.5,0.9-1.1,0.9s-1.1-0.4-1.1-0.9V101
							c0-2.5,2.4-4.5,5.4-4.5h0.4V98.4z"/>
					</g>
				</g>
			</g>
		</g>
	</g>
</g>
<g>
	<g>
		<g>
			<path class="st0" d="M109.1,104.1c-0.1,0-0.2,0-0.2-0.1c-0.1-0.1-0.1-0.3,0-0.4l1.6-1.6l-1.6-1.6c-0.1-0.1-0.1-0.3,0-0.4
				s0.3-0.1,0.4,0l1.9,1.9c0.1,0.1,0.1,0.3,0,0.4l-1.9,1.9C109.3,104.1,109.2,104.1,109.1,104.1z"/>
		</g>
		<g>
			<path class="st0" d="M110.7,102.3h-4.9c-0.2,0-0.3-0.1-0.3-0.3s0.1-0.3,0.3-0.3h4.9c0.2,0,0.3,0.1,0.3,0.3
				S110.8,102.3,110.7,102.3z"/>
		</g>
	</g>
</g>
<g>
	<g>
		<g>
			<path class="st0" d="M238.1,104.4c-0.1,0-0.2,0-0.2-0.1c-0.1-0.1-0.1-0.3,0-0.4l1.6-1.6l-1.6-1.6c-0.1-0.1-0.1-0.3,0-0.4
				c0.1-0.1,0.3-0.1,0.4,0l1.9,1.9c0.1,0.1,0.1,0.3,0,0.4l-1.9,1.9C238.2,104.4,238.1,104.4,238.1,104.4z"/>
		</g>
		<g>
			<path class="st0" d="M239.6,102.6h-4.9c-0.2,0-0.3-0.1-0.3-0.3c0-0.2,0.1-0.3,0.3-0.3h4.9c0.2,0,0.3,0.1,0.3,0.3
				C239.9,102.5,239.8,102.6,239.6,102.6z"/>
		</g>
	</g>
</g>
<g>
	<path class="st0" d="M33.5,62.8l-0.5,1c-0.6-0.4-1.3-0.6-1.7-0.6c-0.4,0-0.7,0.2-0.7,0.5c0,1,3,0.5,3,2.5c0,1.1-1,1.7-2.2,1.7
		c-0.9,0-1.8-0.4-2.5-0.9l0.5-1c0.6,0.5,1.4,0.8,2,0.8c0.5,0,0.8-0.2,0.8-0.5c0-1.1-3-0.4-3-2.4c0-1,0.9-1.7,2.2-1.7
		C32.1,62.2,32.9,62.4,33.5,62.8z"/>
	<path class="st0" d="M37.3,63.3v4.5h-1.3v-4.5h-1.7v-1.1H39v1.1H37.3z"/>
	<path class="st0" d="M41.5,63.3v1.2h2.7v1h-2.7v1.2h3.1v1h-4.3v-5.6h4.3v1H41.5z"/>
	<path class="st0" d="M48.5,62.2c1.4,0,2.2,0.7,2.2,1.9c0,1.3-0.8,2.1-2.2,2.1h-1.1v1.6h-1.3v-5.6H48.5z M47.4,65.2h1
		c0.7,0,1.1-0.3,1.1-1c0-0.6-0.4-0.9-1.1-0.9h-1V65.2z"/>
	<path class="st0" d="M55.1,67.8v-4.5h-1.1v-1.1h2.3v5.6H55.1z"/>
</g>
<g>
	<path class="st0" d="M159.2,62.8l-0.5,1c-0.6-0.4-1.3-0.6-1.7-0.6c-0.4,0-0.7,0.2-0.7,0.5c0,1,3,0.5,3,2.5c0,1.1-1,1.7-2.2,1.7
		c-0.9,0-1.8-0.4-2.5-0.9l0.5-1c0.6,0.5,1.4,0.8,2,0.8c0.5,0,0.8-0.2,0.8-0.5c0-1.1-3-0.4-3-2.4c0-1,0.9-1.7,2.2-1.7
		C157.9,62.2,158.7,62.4,159.2,62.8z"/>
	<path class="st0" d="M163.1,63.3v4.5h-1.3v-4.5h-1.7v-1.1h4.7v1.1H163.1z"/>
	<path class="st0" d="M167.3,63.3v1.2h2.7v1h-2.7v1.2h3.1v1h-4.3v-5.6h4.3v1H167.3z"/>
	<path class="st0" d="M174.3,62.2c1.4,0,2.2,0.7,2.2,1.9c0,1.3-0.8,2.1-2.2,2.1h-1.1v1.6H172v-5.6H174.3z M173.2,65.2h1
		c0.7,0,1.1-0.3,1.1-1c0-0.6-0.4-0.9-1.1-0.9h-1V65.2z"/>
	<path class="st0" d="M184,63.6c0,0.6-0.4,1.2-1,1.9l-1.2,1.3h2.5v1.1h-4.1V67l2-2.1c0.3-0.4,0.6-0.7,0.6-1c0-0.4-0.3-0.6-0.7-0.6
		s-1,0.3-1.5,0.7L180,63c0.7-0.5,1.4-0.8,2.2-0.8C183.3,62.2,184,62.7,184,63.6z"/>
</g>
<g>
	<path class="st0" d="M287,62.8l-0.5,1c-0.6-0.4-1.3-0.6-1.7-0.6c-0.4,0-0.7,0.2-0.7,0.5c0,1,3,0.5,3,2.5c0,1.1-1,1.7-2.2,1.7
		c-0.9,0-1.8-0.4-2.5-0.9l0.5-1c0.6,0.5,1.4,0.8,2,0.8c0.5,0,0.8-0.2,0.8-0.5c0-1.1-3-0.4-3-2.4c0-1,0.9-1.7,2.2-1.7
		C285.6,62.2,286.4,62.4,287,62.8z"/>
	<path class="st0" d="M290.9,63.3v4.5h-1.3v-4.5h-1.7v-1.1h4.7v1.1H290.9z"/>
	<path class="st0" d="M295.1,63.3v1.2h2.7v1h-2.7v1.2h3.1v1h-4.3v-5.6h4.3v1H295.1z"/>
	<path class="st0" d="M302.1,62.2c1.4,0,2.2,0.7,2.2,1.9c0,1.3-0.8,2.1-2.2,2.1h-1.1v1.6h-1.3v-5.6H302.1z M300.9,65.2h1
		c0.7,0,1.1-0.3,1.1-1c0-0.6-0.4-0.9-1.1-0.9h-1V65.2z"/>
	<path class="st0" d="M310.2,64.6c0.8,0.1,1.4,0.7,1.4,1.5c0,1.1-0.8,1.8-2.1,1.8c-0.7,0-1.5-0.3-2-0.7l0.5-1
		c0.4,0.4,0.9,0.6,1.4,0.6c0.6,0,1-0.3,1-0.8c0-0.5-0.3-0.8-1-0.8h-0.9v-0.7l1.3-1.4h-2.1v-1h3.6V63l-1.5,1.5L310.2,64.6z"/>
</g>
<g>
	<g>
		<g>
			<defs>
				<rect id="SVGID_1_" x="154.2" y="88.2" width="16.4" height="23.2"/>
			</defs>
			<clipPath id="SVGID_2_">
				<use xlink:href="#SVGID_1_"  style="overflow:visible;"/>
			</clipPath>
			<path class="st2" d="M162.2,89.6c-0.2,0-0.5,0-0.7,0c-2.8,0.3-5.2,2.6-5.7,5.4c-0.3,1.9,0.2,3.7,1.3,5.1c1.4,1.7,2.2,4.1,2.2,6.6
				c0,0.4,0.2,0.6,0.5,0.6h4.8c0.3,0,0.5-0.2,0.5-0.5v-0.4c0-2.2,0.8-4.5,2.3-6.5c0.8-1.1,1.3-2.5,1.3-3.8
				C168.7,92.5,165.8,89.6,162.2,89.6L162.2,89.6z M164.6,108.7h-4.8c-1.1,0-1.9-0.9-1.9-1.9c0-2.3-0.7-4.3-1.9-5.8
				c-1.4-1.7-2-3.9-1.6-6.2c0.5-3.4,3.4-6.2,6.8-6.6c4.8-0.6,8.8,3.2,8.8,7.8c0,1.7-0.5,3.3-1.5,4.7c-1.3,1.8-2.1,3.8-2.1,5.7v0.4
				C166.5,107.9,165.7,108.7,164.6,108.7L164.6,108.7z"/>
		</g>
		<path class="st1" d="M161.4,109.2h1.6l0.6-1.2h-2.8L161.4,109.2L161.4,109.2z M165.3,108c0.1,0.2,0.1,0.4,0,0.6l-1.3,2.6
			c-0.1,0.2-0.3,0.3-0.5,0.3h-2.6c-0.2,0-0.4-0.1-0.5-0.3l-1.3-2.6c-0.1-0.2-0.1-0.4,0-0.6L165.3,108L165.3,108z"/>
		<polygon class="st1" points="158.3,103.3 166.5,103.3 166.5,104.6 158.3,104.6 158.3,103.3 		"/>
	</g>
	<g>
		<g>
			<defs>
				
					<rect id="SVGID_3_" x="164.8" y="88.6" transform="matrix(0.7071 -0.7071 0.7071 0.7071 -19.0597 153.764)" width="22.6" height="22.6"/>
			</defs>
			<clipPath id="SVGID_4_">
				<use xlink:href="#SVGID_3_"  style="overflow:visible;"/>
			</clipPath>
			<path class="st3" d="M173.2,92.9l4.2,0l0-1.6c0-0.7-0.5-1.2-1.2-1.2l-1.8,0c-0.6,0-1.2,0.5-1.2,1.2L173.2,92.9L173.2,92.9z
				 M178.4,94c-0.1,0.1-0.3,0.2-0.4,0.2l-5.3,0c-0.2,0-0.3-0.1-0.4-0.2s-0.2-0.3-0.2-0.4l0-2.2c0-1.3,1.1-2.4,2.4-2.4l1.8,0
				c1.3,0,2.4,1.1,2.4,2.4l0,2.2C178.6,93.7,178.5,93.9,178.4,94L178.4,94z"/>
			<path class="st3" d="M173.3,108.1l2.1,2.9l2.1-2.9l0-14l-4.2,0L173.3,108.1L173.3,108.1z M175.8,112.4c-0.1,0.1-0.3,0.2-0.4,0.2
				c-0.2,0-0.4-0.1-0.5-0.2l-2.7-3.7c-0.1-0.1-0.1-0.2-0.1-0.3l0-14.8c0-0.3,0.3-0.6,0.6-0.6l5.4,0c0.2,0,0.3,0.1,0.4,0.2
				s0.2,0.3,0.2,0.4l0,14.8c0,0.1,0,0.2-0.1,0.3L175.8,112.4C175.8,112.4,175.8,112.4,175.8,112.4L175.8,112.4z"/>
		</g>
		<path class="st1" d="M178.5,107.2c-0.1,0.1-0.3,0.2-0.4,0.2l-5.4,0c-0.3,0-0.6-0.3-0.6-0.6c0-0.3,0.3-0.6,0.6-0.6l5.4,0
			c0.3,0,0.6,0.3,0.6,0.6C178.6,106.9,178.6,107.1,178.5,107.2L178.5,107.2z"/>
	</g>
</g>
<g>
	<g>
		<g>
			<g>
				<path class="st1" d="M306.6,111.5h-19.1c-1.4,0-2.6-1.1-2.8-2.5l-1.3-11.4c0-0.4,0.2-0.8,0.6-1c0.4-0.1,0.8,0,1.1,0.3
					c1.7,2.4,4.1,5.1,5,5.1c1.2-0.1,4-5.2,6.1-11c0.3-0.7,1.5-0.7,1.7,0c2.1,5.8,4.9,10.9,6.1,11l0,0c0.9,0,3.3-2.6,5-5.1
					c0.2-0.3,0.7-0.5,1.1-0.3c0.4,0.1,0.6,0.5,0.6,1l-1.3,11.4C309.3,110.5,308,111.5,306.6,111.5z M285.6,100.6l0.9,8.2
					c0.1,0.5,0.5,0.9,1,0.9h19.1c0.5,0,0.9-0.4,1-0.9l0.9-8.2c-1.4,1.6-3.1,3.2-4.5,3.2c-2.6-0.2-5.4-6.2-6.9-9.9
					c-1.5,3.8-4.3,9.7-6.8,9.9c0,0,0,0,0,0C288.8,103.9,287,102.2,285.6,100.6z"/>
			</g>
			<g>
				<circle class="st1" cx="284.3" cy="97.5" r="1.8"/>
			</g>
			<g>
				<circle class="st1" cx="297.1" cy="90.1" r="1.8"/>
			</g>
			<g>
				<circle class="st1" cx="309.8" cy="97.5" r="1.8"/>
			</g>
		</g>
		<g>
			<circle class="st1" cx="297" cy="105.4" r="1.8"/>
		</g>
	</g>
</g>
</svg>
